<svg width="14" height="14" viewBox="0 0 14 14" fill="none" xmlns="http://www.w3.org/2000/svg">
<g clip-path="url(#clip0_59_2209)">
<path d="M6.37762 11.6432H4.61278C4.47446 11.6432 4.34286 11.5838 4.2513 11.4805L3.76998 10.9365C3.6983 10.8553 3.59498 10.8091 3.4869 10.8091C3.37882 10.8091 3.2755 10.8556 3.20382 10.9365L2.79082 11.4032C2.65558 11.5558 2.46154 11.6435 2.25742 11.6435H2.22998C3.45946 12.9609 5.2103 13.7855 7.15434 13.7855C9.09838 13.7855 10.8489 12.9609 12.0787 11.6435H6.37762V11.6432Z" fill="white"/>
<path d="M4.155 9.97868C4.2628 9.97868 4.36612 9.93472 4.4406 9.85688L5.0118 9.26076C5.0832 9.18628 5.18176 9.14428 5.2848 9.14428H5.30832C5.41668 9.14428 5.51972 9.19076 5.5914 9.27168L6.07272 9.81572C6.16428 9.91932 6.29588 9.9784 6.4342 9.9784H13.2203C13.4745 9.45312 13.6607 8.88948 13.7716 8.29896H7.25796C7.11964 8.29896 6.98804 8.2396 6.89648 8.13628L6.41516 7.59224C6.34348 7.51104 6.24016 7.46484 6.13208 7.46484C6.024 7.46484 5.92068 7.51132 5.849 7.59224L5.436 8.059C5.30076 8.2116 5.10672 8.29924 4.9026 8.29924H0.535156C0.646036 8.88976 0.832516 9.4534 1.08648 9.97868H4.155Z" fill="white"/>
<path d="M10.8379 4.81947H9.65067C9.51235 4.81947 9.38075 4.76011 9.28919 4.65679L8.80759 4.11275C8.73591 4.03155 8.63259 3.98535 8.52451 3.98535C8.41643 3.98535 8.31311 4.03183 8.24143 4.11275L7.82843 4.57951C7.69319 4.73211 7.49915 4.81975 7.29531 4.81975H0.796791C0.611711 5.34727 0.491031 5.90447 0.442871 6.48239H6.57767C6.68547 6.48239 6.78879 6.43843 6.86327 6.36059L7.43447 5.76447C7.50587 5.68999 7.60443 5.64799 7.70747 5.64799H7.73099C7.83935 5.64799 7.94239 5.69447 8.01407 5.77567L8.49539 6.31971C8.58695 6.42331 8.71855 6.48239 8.85687 6.48239H13.8644C13.8162 5.90419 13.6956 5.34699 13.5105 4.81975H10.8376L10.8379 4.81947Z" fill="white"/>
<path d="M8.96939 3.00274C9.07719 3.00274 9.18051 2.95878 9.25499 2.88094L9.82619 2.28482C9.89759 2.21034 9.99615 2.16834 10.0992 2.16834H10.1227C10.2311 2.16834 10.3341 2.21482 10.4058 2.29602L10.8871 2.84006C10.9787 2.94366 11.1103 3.00274 11.2486 3.00274H12.5391C11.3102 1.36922 9.35551 0.3125 7.15359 0.3125C4.95167 0.3125 2.99699 1.36922 1.76807 3.00274H8.96939Z" fill="white"/>
</g>
<defs>
<clipPath id="clip0_59_2209">
<rect width="14" height="14" fill="white"/>
</clipPath>
</defs>
</svg>
