<svg width="120" height="36" viewBox="0 0 120 36" fill="none" xmlns="http://www.w3.org/2000/svg">
<g id="NFT LEASING LOGO 1">
<g id="Group">
<g id="Group_2">
<g id="Group_3">
<path id="Vector" d="M22.6111 16.1943V17.3943V20.9943L21.5778 20.3943L20.5444 19.7943L19.5 19.1943L18.4667 18.5943L16.3889 17.3943L15.3556 16.7943L14.3222 16.1943L13.2778 15.6054L12.2444 15.0054L11.2111 14.4054L10.1667 13.8054L9.13333 13.2054L8.09999 12.6054L7.05555 12.0054L6.02222 12.6054V18.5943L7.05555 19.1943L8.09999 19.7943V15.0054L9.13333 15.6054L10.1667 16.2054L11.2111 16.7943L12.2444 17.3943L13.2778 17.9943L14.3222 18.5943L15.3556 19.1943L16.3889 19.7943L17.4333 20.3943L18.4667 20.9943L19.5 21.5943L20.5444 22.1832L21.5778 22.7832L22.6111 23.3832L23.6556 23.9832L24.6889 23.3832V17.3943L23.6556 16.7943L22.6111 16.1943Z" fill="#9D80FF"/>
<path id="Vector_2" d="M23.6555 12.0054L22.6111 11.4166V11.4054L21.5778 10.8166L20.5444 10.2166L19.5 9.61655L18.4666 9.01655L17.4333 8.41655L16.3889 7.81655L15.3555 7.21655L14.3222 7.81655L13.2777 8.41655L12.2444 9.01655L11.2111 9.61655L10.1666 10.2166L9.1333 10.8166L10.1666 11.4166L11.2 12.0166H11.2111L12.2444 12.6166L13.2777 13.2054L14.3222 13.8054L14.7777 14.0721L15.8666 14.7054L16.3889 15.0054L17.4222 15.6054L18.2111 16.061L20.5444 17.3943V16.1943V15.0054L19.5 14.4054L18.4666 13.8054L17.4333 13.2054L16.6777 12.7721L16.3889 12.6054L15.3555 12.0054L14.6777 11.6166L13.2777 10.8166L14.3222 10.2166L15.3555 9.61655L16.3889 10.2166L17.4333 10.8166L18.4666 11.4166L19.5 12.0054L20.5444 12.6054L21.5778 13.2054L23.6555 14.4054L24.6889 15.0054V12.6054L23.6555 12.0054Z" fill="#9D80FF"/>
<path id="Vector_3" d="M20.5444 24.5831L19.5 23.9831L18.4667 23.3831L16.3889 22.1831L15.3556 21.5942L14.3222 20.9942L13.2778 20.3942L12.2444 19.7942L11.2111 19.1942L10.1667 18.5942V20.9942L11.2111 21.5942L12.2444 22.1831V22.1942L13.2778 22.7831L14.3222 23.3831L15.3556 23.9831L16.3889 24.5831L17.4222 25.1831L16.3889 25.7831L15.3556 26.3831L14.3222 25.7831L13.2778 25.1831L12.2444 24.5831L11.2111 23.9831L10.1667 23.3831L9.13333 22.7831L8.1 22.1831L7.05555 21.5831L6.02222 20.9942V23.3831L7.05555 23.9831L8.1 24.5831L9.13333 25.1831L10.1667 25.7831L11.2111 26.3831L13.2778 27.572L14.3222 28.172L15.3556 28.772L16.3889 28.172L17.4333 27.5831L18.4667 26.9831L19.5 26.3831L20.5444 25.7831L21.5778 25.1831L20.5444 24.5831Z" fill="#9D80FF"/>
</g>
</g>
<g id="Group_4">
<path id="Vector_4" d="M30.3889 23.0375V13.593H32.2111L36.4111 20.3486V13.593H38.0667V23.0375H36.2556L32.0667 16.293V23.0486H30.3889V23.0375Z" fill="#9D80FF"/>
<path id="Vector_5" d="M40.4 23.0389V13.5945H46.7556V15.1056H42.0778V17.8056H46.3556V19.3167H42.0778V23.05H40.4V23.0389Z" fill="#9D80FF"/>
<path id="Vector_6" d="M47.5 15.0944V13.5833H55.1222V15.0944H52.1333V23.0388H50.4667V15.0944H47.5Z" fill="#9D80FF"/>
<path id="Vector_7" d="M59.9 23.0389V13.5945H61.5667V21.5389H65.8445V23.05H59.9V23.0389Z" fill="#9D80FF"/>
<path id="Vector_8" d="M67 23.4444V14H73.3556V15.5111H68.6778V17.8H72.9556V19.3111H68.6778V21.9556H73.3556V23.4667H67V23.4444Z" fill="#9D80FF"/>
<path id="Vector_9" d="M74.6333 22.7167L77.5555 13.5945H80.1444L83.0666 22.7167L82.8444 23.05H81.4666L80.8111 20.95H76.9L76.2555 23.05H74.8777L74.6333 22.7167ZM77.3444 19.4389H80.3444L78.9777 15.0945H78.7222L77.3444 19.4389Z" fill="#9D80FF"/>
<path id="Vector_10" d="M84.0667 22.4167V21.5389H88.3C88.7 21.5389 88.9 21.3389 88.9 20.9389V19.8945C88.9 19.5389 88.7444 19.3278 88.4333 19.2612L85.6555 18.7167C84.6 18.4945 84.0667 17.7834 84.0667 16.5723V15.8167C84.0667 14.3389 84.8111 13.5945 86.2889 13.5945H89.4889L90.3 14.2278V15.1056H86.3444C85.9444 15.1056 85.7444 15.3056 85.7444 15.7056V16.6056C85.7444 16.9612 85.9 17.1723 86.2111 17.2389L88.9889 17.7834C90.0444 18.0056 90.5778 18.7167 90.5778 19.9167V20.8167C90.5778 22.2945 89.8333 23.0389 88.3555 23.0389H84.8778L84.0667 22.4167Z" fill="#9D80FF"/>
<path id="Vector_11" d="M92.4889 23.0389V13.5945H94.1556V23.0389H92.4889Z" fill="#9D80FF"/>
<path id="Vector_12" d="M96.4889 23.0389V13.5945H98.3111L102.511 20.35V13.5945H104.167V23.0389H102.356L98.1556 16.2945V23.05H96.4889V23.0389Z" fill="#9D80FF"/>
<path id="Vector_13" d="M106.367 20.8278V15.8167C106.367 14.3389 107.111 13.5945 108.589 13.5945H112.611L113.422 14.2278V15.1056H108.644C108.244 15.1056 108.044 15.3056 108.044 15.7056V20.9389C108.044 21.3389 108.244 21.5389 108.644 21.5389H112.022V18.8945H110.022V17.3834H113.689V23.0389H108.578C107.1 23.0389 106.367 22.3056 106.367 20.8278Z" fill="#9D80FF"/>
</g>
</g>
</g>
</svg>
